PathFileType  4	(X/Y/Z) C:\Users\antoi\Documents\MyRepositories\mobilecap\ResultsAnalysis
DataRate	CameraRate	NumFrames	NumMarkers	Units	OrigDataRate	OrigDataStartFrame	OrigNumFrames
100.0	100.0	4	51	mm	100.0	1	1411
Frame#	Time	r_knee			r_shank_antsup			r_ankle			r_calc			r_5meta			r_toe			L_knee			L_shank_antsup			L_ankle			L_calc			L_5meta			L_toe			r_sh2			r_sh3			r_sh4			L_sh2			L_sh3			r_thigh1			r_thigh2			r_thigh3			r_thigh4			r_thigh5			L_thigh1			L_thigh2			L_thigh3			L_thigh4			r.ASIS			r.PSIS			L.ASIS			L.PSIS			C7			R_Shoulder			L_Shoulder			R_Sternum			L_Sternum			R_humerus			R_elbow_med			R_elbow_lat			R_forearm			R_wrist_radius			R_wrist_ulna			L_humerus			L_elbow_med			L_elbow_lat			L_forearm			L_wrist_radius			L_wrist_ulna			R_HJC			L_HJC			R_HJC_reg			L_HJC_reg			
		X1	Y1	Z1	X2	Y2	Z2	X3	Y3	Z3	X4	Y4	Z4	X5	Y5	Z5	X6	Y6	Z6	X7	Y7	Z7	X8	Y8	Z8	X9	Y9	Z9	X10	Y10	Z10	X11	Y11	Z11	X12	Y12	Z12	X13	Y13	Z13	X14	Y14	Z14	X15	Y15	Z15	X16	Y16	Z16	X17	Y17	Z17	X18	Y18	Z18	X19	Y19	Z19	X20	Y20	Z20	X21	Y21	Z21	X22	Y22	Z22	X23	Y23	Z23	X24	Y24	Z24	X25	Y25	Z25	X26	Y26	Z26	X27	Y27	Z27	X28	Y28	Z28	X29	Y29	Z29	X30	Y30	Z30	X31	Y31	Z31	X32	Y32	Z32	X33	Y33	Z33	X34	Y34	Z34	X35	Y35	Z35	X36	Y36	Z36	X37	Y37	Z37	X38	Y38	Z38	X39	Y39	Z39	X40	Y40	Z40	X41	Y41	Z41	X42	Y42	Z42	X43	Y43	Z43	X44	Y44	Z44	X45	Y45	Z45	X46	Y46	Z46	X47	Y47	Z47	X48	Y48	Z48	X49	Y49	Z49	X50	Y50	Z50	X51	Y51	Z51	

1	0.00000000	-246.97523	454.54561	-388.62559	-220.33225	388.80132	-361.35295	-266.88810	93.79248	-405.09883	-333.14351	57.86903	-444.90372	-164.13700	46.20382	-375.40687	-120.86321	67.22640	-429.28187	-249.35985	453.27419	-798.64693	-203.78157	393.44275	-808.08163	-254.30669	93.25557	-785.15956	-323.86840	59.02491	-736.96009	-163.29846	43.46856	-813.00164	-113.62854	67.20772	-759.83485	-230.19577	275.94588	-358.98846	-293.23452	393.10638	-379.59126	-309.50270	278.13850	-381.31662	-292.36567	403.21621	-820.25318	-292.58649	280.76104	-821.52821	-527.93326	566.93740	-457.11700	-421.18461	559.90468	-425.17067	-412.28156	519.43013	-373.74661	-553.24479	482.88286	-384.05686	-437.68948	467.71656	-368.66103	-519.87307	553.98682	-768.41320	-382.16567	546.59407	-779.13470	-532.72679	442.74223	-801.93165	-390.63575	443.56014	-811.84955	-577.32562	594.03268	-472.20151	-757.40493	546.41076	-544.02699	-580.96281	586.80006	-729.02829	-761.06458	540.99413	-651.58199	-687.60530	1031.92385	-599.40215	-618.48778	984.93221	-444.65425	-617.84705	977.47407	-765.29492	-565.91568	950.47805	-581.62312	-567.19456	948.23350	-625.13513	-633.04059	750.43906	-359.27723	-665.26633	643.61536	-421.70143	-656.54197	669.54134	-344.00022	-550.81245	709.71629	-361.48978	-450.70668	749.17420	-394.19782	-436.01171	705.87636	-392.25808	-596.01700	842.63082	-812.45050	-658.16901	630.71763	-760.33372	-659.75712	639.63167	-833.63139	-555.49765	686.87342	-833.56563	-453.98181	735.70482	-801.48325	-436.64910	702.45223	-803.40725	-615.25642	499.76507	-498.27059	-615.23178	498.30523	-698.55763	-607.80377	496.70347	-502.65533	-613.56358	488.17839	-671.93282	
2	0.01000000	-246.90804	454.44212	-388.72635	-220.40802	388.70949	-361.47214	-266.85624	93.80710	-405.04125	-333.15626	57.82326	-444.86663	-164.16430	46.20282	-375.40640	-120.87745	67.21519	-429.31521	-249.38322	453.32653	-798.71890	-203.77668	393.40965	-808.09808	-254.30832	93.21638	-785.16145	-323.86281	59.01044	-736.98693	-163.30615	43.44506	-813.00662	-113.66074	67.19778	-759.88508	-230.09606	276.01683	-359.02586	-293.19734	393.05241	-379.56284	-309.49569	278.13436	-381.31083	-292.36636	403.18095	-820.25858	-292.39436	280.68720	-821.75167	-527.94691	566.93014	-457.03398	-421.13432	559.82190	-425.14912	-412.25034	519.39126	-373.70194	-553.15959	483.01032	-384.12440	-437.69826	467.67485	-368.63449	-519.87677	553.95206	-768.44807	-382.14587	546.59749	-779.15839	-532.71555	442.70840	-801.97236	-390.64010	443.58955	-811.93269	-577.31816	594.08615	-472.26908	-757.45502	546.36385	-543.94942	-580.98947	586.74550	-729.07843	-761.04411	540.94052	-651.58950	-687.65648	1031.82655	-599.46628	-618.64063	984.79208	-444.75400	-617.90901	977.39495	-765.33936	-565.90416	950.46609	-581.71521	-567.23213	948.19898	-625.37176	-632.87078	750.42248	-359.30282	-665.20307	643.58261	-421.78057	-656.38356	669.51499	-344.05933	-550.71740	709.69362	-361.55832	-450.52124	749.15237	-394.23233	-435.89466	705.77515	-392.33800	-596.09802	842.57198	-812.55097	-658.22289	630.70834	-760.38810	-659.92529	639.60196	-833.68537	-555.62160	686.75329	-833.64119	-454.04243	735.28058	-801.35006	-436.77314	702.12045	-803.45153	-615.23048	499.79467	-498.26625	-615.24554	498.25426	-698.55268	-607.84209	496.69381	-502.73686	-613.48621	488.16523	-672.00886	
3	0.02000000	-246.87734	454.41207	-388.75800	-220.38888	388.69956	-361.47043	-266.83599	93.83883	-405.00737	-333.14277	57.81487	-444.85388	-164.17443	46.24719	-375.40890	-120.87422	67.20805	-429.33173	-249.38656	453.32518	-798.74043	-203.77529	393.37999	-808.11516	-254.30643	93.19074	-785.16656	-323.87031	58.99028	-736.99959	-163.31286	43.42356	-813.00726	-113.66109	67.18196	-759.90404	-230.09304	276.01699	-359.02180	-293.18214	392.99910	-379.53463	-309.50784	278.13944	-381.30204	-292.34699	403.14585	-820.26595	-292.36846	280.80409	-821.82334	-527.97958	566.99963	-457.07459	-421.17272	559.79614	-425.18655	-412.25965	519.40192	-373.71126	-553.17805	482.96254	-384.11029	-437.68957	467.68369	-368.63046	-519.87175	553.91332	-768.47636	-382.14422	546.56644	-779.21160	-532.70126	442.64365	-802.00798	-390.63734	443.58537	-811.97653	-577.33753	594.12703	-472.32934	-757.46959	546.36066	-543.90980	-581.01876	586.68915	-729.13158	-761.02638	540.88312	-651.61468	-687.68176	1031.81302	-599.59297	-618.63207	984.75927	-444.82452	-617.99644	977.33630	-765.45836	-565.89671	950.45113	-581.78744	-567.25804	948.17313	-625.50088	-632.75237	750.37997	-359.33804	-665.09152	643.51619	-421.81565	-656.24326	669.43724	-344.20511	-550.61217	709.61892	-361.65458	-450.34499	749.12445	-394.29672	-435.72060	705.70530	-392.25100	-596.19791	842.51417	-812.64151	-658.19385	630.79571	-760.23979	-660.07720	639.55160	-833.80501	-555.73778	686.61067	-833.67503	-454.11594	734.93829	-801.35422	-436.88899	701.82634	-803.54821	-615.21987	499.82678	-498.26870	-615.25638	498.20253	-698.55447	-607.88789	496.73261	-502.76023	-613.47767	488.12423	-672.02725	
4	0.03000000	-246.89495	454.45350	-388.73021	-220.33645	388.75879	-361.41145	-266.82375	93.87723	-404.99893	-333.13641	57.81729	-444.85916	-164.15118	46.32499	-375.44471	-120.86594	67.21857	-429.35082	-249.37394	453.30065	-798.74448	-203.76711	393.37025	-808.09587	-254.30427	93.17449	-785.17109	-323.88122	58.97835	-737.00978	-163.31647	43.40674	-813.01260	-113.65558	67.15953	-759.90068	-230.16151	275.97662	-359.00637	-293.23700	392.98413	-379.53549	-309.51529	278.16646	-381.28103	-292.31861	403.11754	-820.27644	-292.45130	280.85293	-821.73037	-527.93039	567.12306	-457.08279	-421.19605	559.82157	-425.24263	-412.28526	519.43040	-373.74222	-553.18452	482.88700	-384.05703	-437.70299	467.72278	-368.67204	-519.86988	553.87504	-768.50735	-382.16885	546.50669	-779.27071	-532.67589	442.59358	-802.10876	-390.62003	443.51854	-811.93997	-577.35870	594.10225	-472.34425	-757.47570	546.34410	-543.92130	-581.05897	586.63125	-729.17210	-761.01741	540.83760	-651.64404	-687.66527	1031.80056	-599.67455	-618.51579	984.77164	-444.87778	-618.12267	977.27459	-765.56679	-565.88672	950.43681	-581.87257	-567.27356	948.15327	-625.55735	-632.67758	750.32408	-359.44538	-664.95300	643.45692	-421.81100	-656.10003	669.35564	-344.32997	-550.49177	709.51463	-361.77315	-450.18452	749.07973	-394.37414	-435.48169	705.70620	-392.07781	-596.31480	842.45690	-812.70345	-658.12352	630.92495	-759.97630	-660.22323	639.48477	-833.93666	-555.86352	686.45567	-833.72175	-454.19212	734.67473	-801.42086	-437.01919	701.54155	-803.65306	-615.23234	499.80455	-498.28463	-615.27407	498.15185	-698.57018	-607.93585	496.71552	-502.75872	-613.50155	488.06222	-672.04202	
